HIERARCHY
ROOT Hips
{
	OFFSET 0.00000 0.00000 0.00000
	CHANNELS 6 Xposition Yposition Zposition Zrotation Yrotation Xrotation 
	JOINT LHipJoint
	{
		OFFSET 0 0 0
		CHANNELS 3 Zrotation Yrotation Xrotation
		JOINT LeftUpLeg
		{
			OFFSET 1.65674 -1.80282 0.62477
			CHANNELS 3 Zrotation Yrotation Xrotation
			JOINT LeftLeg
			{
				OFFSET 2.59720 -7.13576 0.00000
				CHANNELS 3 Zrotation Yrotation Xrotation
				JOINT LeftFoot
				{
					OFFSET 2.49236 -6.84770 0.00000
					CHANNELS 3 Zrotation Yrotation Xrotation
					JOINT LeftToeBase
					{
						OFFSET 0.19704 -0.54136 2.14581
						CHANNELS 3 Zrotation Yrotation Xrotation
						End Site
						{
							OFFSET 0.00000 -0.00000 1.11249
						}
					}
				}
			}
		}
	}
	JOINT RHipJoint
	{
		OFFSET 0 0 0
		CHANNELS 3 Zrotation Yrotation Xrotation
		JOINT RightUpLeg
		{
			OFFSET -1.61070 -1.80282 0.62476
			CHANNELS 3 Zrotation Yrotation Xrotation
			JOINT RightLeg
			{
				OFFSET -2.59502 -7.12977 0.00000
				CHANNELS 3 Zrotation Yrotation Xrotation
				JOINT RightFoot
				{
					OFFSET -2.46780 -6.78024 0.00000
					CHANNELS 3 Zrotation Yrotation Xrotation
					JOINT RightToeBase
					{
						OFFSET -0.23024 -0.63258 2.13368
						CHANNELS 3 Zrotation Yrotation Xrotation
						End Site
						{
							OFFSET -0.00000 -0.00000 1.11569
						}
					}
				}
			}
		}
	}
	JOINT LowerBack
	{
		OFFSET 0 0 0
		CHANNELS 3 Zrotation Yrotation Xrotation
		JOINT Spine
		{
			OFFSET 0.01961 2.05450 -0.14112
			CHANNELS 3 Zrotation Yrotation Xrotation
			JOINT Spine1
			{
				OFFSET 0.01021 2.06436 -0.05921
				CHANNELS 3 Zrotation Yrotation Xrotation
				JOINT Neck
				{
					OFFSET 0 0 0
					CHANNELS 3 Zrotation Yrotation Xrotation
					JOINT Neck1
					{
						OFFSET 0.00713 1.56711 0.14968
						CHANNELS 3 Zrotation Yrotation Xrotation
						JOINT Head
						{
							OFFSET 0.03429 1.56041 -0.10006
							CHANNELS 3 Zrotation Yrotation Xrotation
							End Site
							{
								OFFSET 0.01305 1.62560 -0.05265
							}
						}
					}
				}
				JOINT LeftShoulder
				{
					OFFSET 0 0 0
					CHANNELS 3 Zrotation Yrotation Xrotation
					JOINT LeftArm
					{
						OFFSET 3.54205 0.90436 -0.17364
						CHANNELS 3 Zrotation Yrotation Xrotation
						JOINT LeftForeArm
						{
							OFFSET 4.86513 -0.00000 -0.00000
							CHANNELS 3 Zrotation Yrotation Xrotation
							JOINT LeftHand
							{
								OFFSET 3.35554 -0.00000 0.00000
								CHANNELS 3 Zrotation Yrotation Xrotation
								JOINT LeftFingerBase
								{
									OFFSET 0 0 0
									CHANNELS 3 Zrotation Yrotation Xrotation
									JOINT LeftHandIndex1
									{
										OFFSET 0.66117 -0.00000 0.00000
										CHANNELS 3 Zrotation Yrotation Xrotation
										End Site
										{
											OFFSET 0.53306 -0.00000 0.00000
										}
									}
								}
								JOINT LThumb
								{
									OFFSET 0 0 0
									CHANNELS 3 Zrotation Yrotation Xrotation
									End Site
									{
										OFFSET 0.54120 -0.00000 0.54120
									}
								}
							}
						}
					}
				}
				JOINT RightShoulder
				{
					OFFSET 0 0 0
					CHANNELS 3 Zrotation Yrotation Xrotation
					JOINT RightArm
					{
						OFFSET -3.49802 0.75994 -0.32616
						CHANNELS 3 Zrotation Yrotation Xrotation
						JOINT RightForeArm
						{
							OFFSET -5.02649 -0.00000 0.00000
							CHANNELS 3 Zrotation Yrotation Xrotation
							JOINT RightHand
							{
								OFFSET -3.36431 -0.00000 0.00000
								CHANNELS 3 Zrotation Yrotation Xrotation
								JOINT RightFingerBase
								{
									OFFSET 0 0 0
									CHANNELS 3 Zrotation Yrotation Xrotation
									JOINT RightHandIndex1
									{
										OFFSET -0.73041 -0.00000 0.00000
										CHANNELS 3 Zrotation Yrotation Xrotation
										End Site
										{
											OFFSET -0.58887 -0.00000 0.00000
										}
									}
								}
								JOINT RThumb
								{
									OFFSET 0 0 0
									CHANNELS 3 Zrotation Yrotation Xrotation
									End Site
									{
										OFFSET -0.59786 -0.00000 0.59786
									}
								}
							}
						}
					}
				}
			}
		}
	}
}
MOTION
Frames: 16
Frame Time: 0.033333
10.0457 17.4888 -0.7182 2.3000 -3.2966 -5.4313 0.0000 0.0000 0.0000 -28.6808 -3.6230 -6.0385 2.3652 9.5885 27.6542 0.6281 5.4910 -17.9710 0.0150 -0.7916 -2.1756 0.0000 0.0000 0.0000 18.3104 7.6149 -11.6939 -13.2217 -18.8607 69.8127 0.7726 -15.5529 -8.5519 -0.7637 5.5808 -15.5727 -1.4850 -0.0389 5.8524 0.0849 -0.1381 1.6495 0.9304 -0.0671 -1.5792 3.7400 7.9738 -8.2311 -3.8377 10.5508 5.6955 -1.2780 5.1526 3.7762 -0.0000 -0.0000 0.0000 -91.1884 3.9673 22.5311 21.5370 -32.4498 -6.3356 -0.0000 0.0000 -24.8015 23.5212 21.9893 9.2563 -7.1250 0.0000 -0.0000 -5.5876 53.6625 -1.1930 -0.0000 -0.0000 0.0000 85.5845 1.7448 32.4790 -16.8148 26.6129 -4.0040 0.0000 -0.0000 -11.0629 -22.4912 14.9247 -6.0867 7.1250 -0.0000 -0.0000 3.4257 -13.9085 2.5064
10.0619 17.4592 -0.0945 2.2809 -1.4979 -5.2164 0.0000 0.0000 0.0000 -29.1206 -3.6392 -3.7306 2.3347 9.5310 27.4708 0.8444 4.3014 -19.4331 0.0562 -1.5291 -4.2061 0.0000 0.0000 0.0000 17.7897 9.2212 -16.4541 -12.5602 -18.6175 67.7537 0.5807 -14.7028 -12.0463 -0.8399 5.8458 -16.3378 -1.7790 -0.4065 6.0826 0.3474 -0.6437 1.6314 1.4036 -0.3175 -1.7057 3.4784 7.5858 -7.6095 -4.0006 10.0772 5.2950 -1.3510 4.9181 3.4895 -0.0000 -0.0000 0.0000 -90.0320 2.3465 27.0459 26.3711 -37.5728 -9.1130 -0.0000 0.0000 -26.7537 24.1215 22.0746 9.5521 -7.1250 0.0000 -0.0000 -4.9947 53.8685 -1.0911 -0.0000 -0.0000 0.0000 86.0299 -1.2475 29.2993 -14.3989 23.3022 -2.9841 0.0000 -0.0000 -11.5351 -22.5346 15.8939 -6.4827 7.1250 -0.0000 -0.0000 3.4560 -12.8695 2.6042
10.0830 17.4078 0.5631 1.8719 0.4051 -5.3999 0.0000 0.0000 0.0000 -29.1412 -3.2291 -0.5599 2.2524 9.3731 26.9695 1.1041 3.0194 -21.1501 0.0765 -1.7847 -4.9111 0.0000 0.0000 0.0000 17.5261 10.7371 -19.2375 -10.8157 -17.8437 62.1818 0.1120 -11.8764 -15.2680 -0.6875 5.3009 -14.7688 -1.6915 -0.9477 6.7208 0.6960 -1.3611 1.5723 1.7801 -0.6708 -2.0886 3.3830 7.5710 -7.6583 -3.7811 10.0702 5.8781 -1.2517 4.9162 3.6818 -0.0000 0.0000 0.0000 -89.0246 1.0794 30.0424 31.4990 -42.1441 -12.4033 -0.0000 0.0000 -27.6112 23.5711 19.2316 8.1779 -7.1250 0.0000 -0.0000 -4.7313 50.7575 -0.6725 -0.0000 0.0000 0.0000 86.6451 -4.2608 23.9332 -12.1918 20.0916 -2.1677 0.0000 -0.0000 -8.1193 -21.4790 14.4925 -5.6239 7.1250 -0.0000 -0.0000 4.0887 -14.4841 2.9438
10.0883 17.4056 1.2518 2.6794 2.0802 -5.5491 0.0000 0.0000 0.0000 -30.2172 -2.4771 3.3238 1.8921 8.6376 24.6680 1.1664 2.1690 -21.2894 0.0540 -1.4989 -4.1227 0.0000 0.0000 0.0000 15.8271 12.3987 -20.4278 -8.1901 -16.2573 53.2444 -0.2546 -9.3705 -17.0853 -0.6298 5.0780 -14.1311 -2.8382 -1.1674 6.9536 0.6626 -1.7373 1.7799 2.4233 -0.8581 -1.9538 2.4198 7.2572 -7.6282 -2.9749 9.6730 5.4575 -0.8613 4.7343 3.3998 0.0000 0.0000 0.0000 -87.8545 -0.2719 32.8973 37.4113 -46.4591 -16.5375 -0.0000 0.0000 -28.3756 24.9336 17.0704 7.7711 -7.1250 0.0000 -0.0000 -2.8949 48.6662 -0.2620 0.0000 0.0000 0.0000 87.3938 -7.1931 17.9627 -10.2978 17.2041 -1.5619 0.0000 -0.0000 -5.4898 -21.4439 16.1180 -6.2231 7.1250 -0.0000 -0.0000 4.1998 -12.7665 3.1767
10.0928 17.4419 1.9472 2.7453 3.6780 -4.9157 0.0000 0.0000 0.0000 -30.1129 -1.4996 7.0929 1.3430 7.3373 20.7186 1.0560 1.8013 -20.1407 0.1349 -2.3676 -6.5228 0.0000 0.0000 0.0000 14.4710 14.5161 -21.1268 -5.2548 -13.6652 41.9124 -0.2646 -9.4137 -17.2598 -0.8071 5.7335 -16.0131 -3.1907 -1.5002 6.3412 0.7878 -2.1797 1.9869 2.7604 -1.0923 -1.3534 2.5719 7.0316 -8.8423 -3.1312 9.3501 5.7557 -0.9074 4.5545 3.7491 -0.0000 0.0000 0.0000 -86.9317 -1.9628 34.7720 43.1299 -49.8187 -20.7999 -0.0000 0.0000 -28.6555 25.8416 14.7298 7.0202 -7.1250 0.0000 -0.0000 -1.6119 46.2571 -0.0500 -0.0000 0.0000 0.0000 88.2720 -9.1713 10.8106 -8.3775 14.1628 -1.0425 0.0000 -0.0000 -0.7437 -21.4040 18.4400 -7.0678 7.1250 -0.0000 -0.0000 4.3755 -10.3212 3.5313
10.0813 17.4377 2.6623 2.2773 4.9803 -4.7227 0.0000 0.0000 0.0000 -29.1523 -0.4714 11.0553 0.9475 6.1991 17.3632 1.0415 0.6023 -19.5159 0.0590 -1.5677 -4.3124 0.0000 0.0000 0.0000 14.2797 16.0378 -20.5597 -2.9186 -10.5621 30.8170 -0.4872 -8.8446 -19.2514 -0.9076 6.0708 -16.9900 -3.0594 -1.7773 6.3385 1.1413 -2.5331 2.0381 3.0741 -1.2720 -1.2635 2.0101 6.5810 -8.7364 -3.1902 8.7932 4.9303 -0.8856 4.2732 3.3931 0.0000 -0.0000 0.0000 -86.1850 -2.7541 36.1505 48.6824 -52.4501 -25.1257 -0.0000 0.0000 -29.6255 26.9198 12.8466 6.4413 -7.1250 0.0000 -0.0000 -0.3544 44.3261 0.0059 0.0000 -0.0000 0.0000 88.7849 -11.8383 4.3771 -7.0136 11.9416 -0.7345 0.0000 0.0000 4.5023 -21.4022 14.6366 -5.6560 7.1250 -0.0000 -0.0000 4.1482 -14.3398 2.9996
10.1088 17.4360 3.3943 2.5374 6.0541 -4.1976 0.0000 0.0000 0.0000 -28.8232 1.3286 15.5954 0.4476 4.2926 11.9014 0.7932 0.5433 -17.0350 0.2061 -2.9231 -8.0646 0.0000 0.0000 0.0000 14.0688 13.0679 -22.7507 -1.8222 -8.4855 24.1986 -0.7690 -6.0722 -19.8595 -0.8602 5.9144 -16.5364 -3.0664 -2.1861 6.0437 1.0775 -3.0729 1.7779 3.0410 -1.5366 -1.3303 1.6434 6.4096 -9.7121 -2.7997 8.5963 5.9226 -0.6586 4.1632 3.8845 0.0000 -0.0000 0.0000 -85.7176 -2.5999 36.2427 52.9378 -54.1138 -28.5377 -0.0000 0.0000 -28.6142 26.8403 12.0464 6.0285 -7.1250 0.0000 -0.0000 -0.3399 43.4302 0.0132 0.0000 -0.0000 0.0000 89.5874 -14.6240 -1.2757 -6.1462 10.5058 -0.5656 0.0000 0.0000 9.0798 -20.4410 14.1224 -5.1961 7.1250 -0.0000 -0.0000 4.7795 -14.9863 3.3930
10.0943 17.3797 4.1585 2.6887 7.0624 -4.0308 0.0000 0.0000 0.0000 -28.2755 2.3501 19.9201 0.2294 3.0828 8.5094 0.6164 0.8431 -15.1608 0.3949 -4.0347 -11.1744 0.0000 0.0000 0.0000 15.4024 8.3076 -25.3615 -1.4992 -7.7342 21.9096 -0.8514 -3.7549 -19.1795 -1.5791 7.9280 -22.4958 -3.2580 -2.4044 5.7883 1.1733 -3.3638 1.9614 3.2460 -1.6928 -0.9601 1.3812 5.9306 -10.4075 -3.2460 8.0070 5.4770 -0.7863 3.8420 3.8598 0.0000 0.0000 0.0000 -85.6665 -2.6383 36.6344 55.6425 -55.0323 -30.7418 -0.0000 0.0000 -28.5966 27.1320 12.0851 6.1235 -7.1250 0.0000 -0.0000 -0.0770 43.5070 0.0028 0.0000 0.0000 0.0000 90.2997 -16.3879 -7.0227 -5.4831 9.3973 -0.4510 0.0000 0.0000 13.8946 -19.3121 15.1855 -5.2447 7.1250 -0.0000 -0.0000 5.5881 -13.9889 4.0914
10.0519 17.2914 4.9490 2.1853 6.8032 -3.9169 0.0000 0.0000 0.0000 -27.1040 3.5228 22.4245 0.2250 3.0533 8.4271 0.5193 0.9463 -13.9877 0.5800 -4.8766 -13.5570 0.0000 0.0000 0.0000 16.4831 10.0129 -24.9104 -1.6787 -8.1621 23.2076 -0.8252 -5.2268 -19.8307 -0.8124 5.7517 -16.0657 -3.0314 -2.4713 5.3678 1.4624 -3.4261 1.9134 3.3999 -1.7279 -0.7663 1.3286 5.5972 -11.2992 -3.6076 7.6112 5.9181 -0.8948 3.6105 4.2018 0.0000 0.0000 0.0000 -86.0393 -1.3483 35.9271 56.1010 -55.1781 -31.1179 -0.0000 0.0000 -27.7686 26.5169 12.3121 6.0731 -7.1250 0.0000 -0.0000 -0.6646 43.6864 0.0215 0.0000 0.0000 0.0000 90.5827 -17.7303 -10.4242 -5.1111 8.7717 -0.3923 0.0000 0.0000 17.3017 -18.2764 11.9256 -3.9041 7.1250 -0.0000 -0.0000 6.2153 -17.4851 4.0849
10.0096 17.2120 5.7926 2.8429 6.6173 -3.9392 0.0000 0.0000 0.0000 -27.2528 4.3489 23.1567 0.4694 4.3945 12.1891 0.4769 0.7402 -13.3338 1.0838 -6.6169 -18.5851 0.0000 0.0000 0.0000 16.3884 11.9402 -23.5735 -2.1748 -9.2210 26.4891 -0.4328 -7.8446 -17.6977 -0.8826 5.9891 -16.7527 -3.8041 -2.6183 4.9482 1.2812 -3.6517 1.7456 3.6386 -1.8429 -0.6495 1.4729 5.4720 -11.4484 -3.9980 7.4699 6.2112 -1.0554 3.5182 4.3622 -0.0000 0.0000 0.0000 -86.3528 1.1652 35.3734 54.8517 -54.7742 -30.0948 -0.0000 0.0000 -28.5012 27.6010 11.7275 6.0658 -7.1250 0.0000 -0.0000 0.3862 43.1632 -0.0175 -0.0000 0.0000 0.0000 90.9167 -18.6852 -10.9912 -4.8571 8.3433 -0.3545 0.0000 0.0000 17.4596 -18.8023 10.8996 -3.6836 7.1250 -0.0000 -0.0000 5.8348 -18.5156 3.6991
9.9874 17.1679 6.6478 0.6291 6.1928 -4.5811 0.0000 0.0000 0.0000 -24.3832 4.7200 22.2382 1.2210 7.0089 19.7416 0.3626 0.5049 -11.5685 1.4878 -7.7060 -21.8246 0.0000 0.0000 0.0000 19.4385 13.0402 -22.2169 -2.7295 -10.2437 29.7696 -0.0720 -8.9448 -13.9860 -0.3378 3.7350 -10.3322 -1.4102 -2.8668 4.7620 1.9344 -3.8600 1.6757 2.9743 -1.9397 -0.7147 1.1550 5.3770 -11.0212 -4.2599 7.4030 5.8963 -1.1070 3.4749 4.1587 -0.0000 0.0000 0.0000 -87.4514 3.4877 33.8105 50.5212 -53.2035 -26.5909 -0.0000 0.0000 -27.6658 27.5146 10.7781 5.5636 -7.1250 0.0000 -0.0000 0.3906 42.0937 -0.0280 -0.0000 0.0000 0.0000 90.7755 -18.7904 -11.4269 -4.8371 8.3095 -0.3516 0.0000 0.0000 17.4653 -17.5236 13.0247 -4.0704 7.1250 -0.0000 -0.0000 6.7524 -16.4056 4.6028
9.9572 17.1424 7.4504 -0.4711 4.9660 -5.0546 0.0000 0.0000 0.0000 -22.3094 5.5984 18.6006 2.8309 10.4162 30.3352 0.0803 0.7402 -5.6754 2.0825 -9.0358 -25.9073 0.0000 0.0000 0.0000 21.8462 13.4988 -20.9575 -3.4948 -11.4560 33.8335 -0.1890 -7.7910 -14.4320 -0.0108 0.6705 -1.8425 -0.4193 -2.7910 4.8306 2.2839 -3.7090 1.6780 2.7775 -1.8616 -0.8000 1.5127 5.2624 -11.1971 -4.7669 7.2421 5.8746 -1.3497 3.3768 4.2256 -0.0000 0.0000 0.0000 -88.9825 5.3018 31.6327 43.0730 -49.7888 -20.7565 -0.0000 0.0000 -25.6668 25.7533 12.2926 5.8642 -7.1250 0.0000 -0.0000 -1.3610 43.5759 0.0478 -0.0000 0.0000 0.0000 90.5762 -17.5902 -11.7066 -4.9549 8.5084 -0.3688 0.0000 0.0000 17.9920 -17.4808 12.6499 -3.9453 7.1250 -0.0000 -0.0000 6.7773 -16.7972 4.5619
9.9097 17.1577 8.1890 -0.7822 4.5564 -5.4844 0.0000 0.0000 0.0000 -21.0974 4.7839 13.4414 5.2885 13.7015 42.0546 0.0574 4.1420 4.8095 2.0719 -9.0142 -25.8399 0.0000 0.0000 0.0000 23.4857 13.9031 -18.4741 -3.9128 -12.0434 35.8858 -0.3567 -7.3959 -16.3449 -0.0477 -1.4099 3.8774 -0.4920 -2.7569 5.4476 2.4068 -3.6591 1.6233 2.9793 -1.8329 -1.1895 1.0089 4.7974 -10.5275 -4.1979 6.6043 5.0497 -1.1375 3.1003 3.7255 0.0000 -0.0000 0.0000 -90.5585 6.5142 29.5300 35.2680 -45.0025 -15.0025 -0.0000 0.0000 -25.2003 24.8716 15.2232 6.9403 -7.1250 0.0000 -0.0000 -2.6091 46.6595 -0.1069 0.0000 -0.0000 0.0000 90.2981 -15.6861 -9.7646 -5.3971 9.2529 -0.4371 0.0000 0.0000 16.0717 -16.7957 13.3285 -3.9804 7.1250 -0.0000 -0.0000 7.2578 -16.1529 4.9928
9.8575 17.2027 8.8339 -1.7882 4.6954 -5.0856 0.0000 0.0000 0.0000 -19.3707 2.4886 5.4418 8.8284 16.6960 55.4948 0.3553 12.6962 12.9915 0.8074 -5.7345 -16.0160 0.0000 0.0000 0.0000 25.6337 13.4352 -16.2858 -3.9092 -12.0385 35.8684 -0.5083 -7.3137 -18.0870 -0.0329 -1.1710 3.2194 0.2966 -2.7364 5.7137 2.4933 -3.5787 1.4962 2.6428 -1.7890 -1.5158 0.2097 4.2333 -10.4835 -3.0028 5.8488 4.6659 -0.6573 2.7696 3.4798 0.0000 -0.0000 0.0000 -91.2167 5.8595 27.5146 27.1255 -38.2987 -9.5768 -0.0000 0.0000 -24.5213 23.1542 18.7943 7.8447 -7.1250 0.0000 -0.0000 -5.0298 50.2241 -0.6491 0.0000 -0.0000 0.0000 90.8311 -12.8165 -5.4273 -6.1106 10.4465 -0.5591 0.0000 0.0000 10.8669 -18.7870 14.5278 -4.8774 7.1250 -0.0000 -0.0000 5.9211 -14.7288 4.2442
9.8568 17.2743 9.4711 -1.9651 4.1832 -4.9306 0.0000 0.0000 0.0000 -19.0992 1.4699 -1.9438 11.7938 18.3021 65.3337 -0.4770 19.3961 9.1097 0.7117 -5.3917 -15.0291 0.0000 0.0000 0.0000 26.4960 11.8647 -14.0901 -3.7656 -11.8418 35.1747 -0.7742 -5.3428 -19.4026 -0.1044 -2.0831 5.7353 1.0306 -2.3076 5.9223 2.1073 -2.9680 1.5945 1.8018 -1.4840 -1.6148 -0.1617 3.5225 -10.7131 -2.2870 4.8907 4.4434 -0.4166 2.3200 3.3948 -0.0000 0.0000 0.0000 -91.7290 4.5740 24.4667 19.8551 -30.4674 -5.4577 -0.0000 0.0000 -22.5879 21.6483 19.0724 7.3896 -7.1250 0.0000 -0.0000 -6.5834 50.2690 -0.8582 -0.0000 0.0000 0.0000 91.3431 -9.4740 0.4491 -7.1530 12.1708 -0.7636 0.0000 0.0000 4.5686 -20.6510 15.1347 -5.6199 7.1250 -0.0000 -0.0000 4.6811 -13.8970 3.4315
9.8858 17.3529 10.1341 -1.9181 3.2076 -6.0161 0.0000 0.0000 0.0000 -19.4636 1.0177 -6.3525 13.3513 18.9054 70.2132 -1.2463 20.4678 -0.3410 0.4054 -4.0876 -11.3232 0.0000 0.0000 0.0000 27.2718 9.5867 -10.1593 -3.5888 -11.5922 34.3042 -0.9598 -3.8455 -20.2761 -0.0824 -1.8516 5.0956 1.4599 -1.9746 6.5733 1.7491 -2.5015 2.2208 1.1707 -1.2504 -1.3772 -0.3038 3.1286 -9.9315 -1.9869 4.3371 3.6653 -0.3482 2.0705 2.9565 -0.0000 -0.0000 0.0000 -92.7155 3.2966 17.3565 14.0573 -22.8165 -2.8503 -0.0000 0.0000 -17.2983 20.4267 19.3478 7.0339 -7.1250 0.0000 -0.0000 -7.8589 50.3562 -1.0431 -0.0000 -0.0000 0.0000 91.1605 -5.6707 6.8167 -8.3686 14.1486 -1.0404 0.0000 0.0000 0.1458 -22.3531 14.7906 -5.9928 7.1250 -0.0000 -0.0000 3.5114 -14.0679 2.5574
